<svg xmlns="http://www.w3.org/2000/svg" width="442" height="74" viewBox="0 0 442 74" version="1.1">
	<path d="M 23.568 33.250 C 18.670 46.038, 13.830 58.188, 12.811 60.250 C 11.033 63.851, 11.031 64, 12.767 64 C 13.912 64, 14.635 63.194, 14.740 61.800 C 14.831 60.590, 15.887 56.976, 17.086 53.770 L 19.266 47.941 31.325 48.220 L 43.383 48.500 45.692 54.464 C 46.961 57.744, 48 61.231, 48 62.214 C 48 63.664, 48.846 64, 52.500 64 C 56.928 64, 57.880 63.325, 56.096 61.450 C 55.598 60.927, 52.184 52.625, 48.507 43 C 44.831 33.375, 40.480 22.013, 38.839 17.750 C 34.260 5.859, 33.930 6.193, 23.568 33.250 M 70.500 36.999 L 70.500 63.999 74.535 64 L 78.571 64 78.175 54.156 L 77.780 44.312 85.541 43.656 C 89.809 43.295, 95.117 43, 97.335 43 C 102.230 43, 109.538 39.634, 111.654 36.406 C 116.183 29.492, 115.246 20.179, 109.513 15.146 C 104.645 10.871, 100.464 10.012, 84.500 10.005 L 70.500 9.999 70.500 36.999 M 127.832 31.797 C 128.015 43.786, 127.739 55.937, 127.219 58.798 L 126.273 64 144.637 64 C 159.822 64, 163 63.755, 163 62.582 C 163 61.802, 163.316 60.340, 163.702 59.334 C 164.358 57.624, 164.212 57.634, 161.452 59.482 C 159.034 61.100, 156.374 61.526, 146.750 61.834 L 135 62.211 135 48.105 L 135 34 139.277 34 C 141.630 34, 144.555 34.701, 145.777 35.557 C 147.951 37.079, 148 37.034, 148 33.522 C 148 30.320, 147.796 30.039, 146.126 30.932 C 145.096 31.484, 142.283 32.062, 139.876 32.218 L 135.500 32.500 135.214 22.141 L 134.928 11.782 146.214 12.182 C 154.122 12.463, 158.418 13.074, 160.567 14.222 L 163.633 15.862 163.203 12.931 L 162.773 10 145.137 9.999 L 127.500 9.998 127.832 31.797 M 176.500 36.918 L 176.500 63.999 180.500 64.001 L 184.500 64.002 184.156 54.001 L 183.813 44 190.687 44 L 197.562 44 202.781 52.816 C 205.651 57.664, 208 62.164, 208 62.816 C 208 63.576, 209.854 64, 213.174 64 L 218.349 64 216.275 61.750 C 214.279 59.584, 205 44.769, 205 43.748 C 205 43.474, 206.388 42.972, 208.084 42.633 C 222.073 39.835, 224.655 19.990, 211.997 12.554 C 208.943 10.760, 206.471 10.458, 192.500 10.168 L 176.500 9.836 176.500 36.918 M 231.823 12.755 L 231.412 15.550 236.831 13.721 C 239.811 12.715, 243.656 12.029, 245.375 12.196 L 248.500 12.500 248.500 38.251 L 248.500 64.001 252.500 64.002 L 256.500 64.002 256.187 37.855 L 255.875 11.707 261.440 12.282 C 264.501 12.598, 268.423 13.563, 270.156 14.428 C 274.136 16.413, 273.957 16.485, 273.092 13.250 L 272.358 10.500 252.295 10.230 L 232.233 9.959 231.823 12.755 M 285.070 13.243 C 285.581 15.027, 286 24.522, 286 34.342 C 286 54.589, 286.719 57.427, 292.800 61.186 C 297.504 64.092, 311.680 64.996, 317.094 62.734 C 323.534 60.043, 324.384 56.703, 324.980 31.748 C 325.432 12.849, 325.303 9.997, 324 9.997 C 322.706 9.998, 322.542 12.780, 322.805 30.252 C 323.162 53.984, 322.480 57.511, 317 60.248 C 312.746 62.374, 304.216 62.535, 299.534 60.579 C 293.392 58.012, 292.888 55.691, 293.212 31.476 L 293.500 9.998 288.820 9.999 L 284.140 10 285.070 13.243 M 338.500 36.999 L 338.500 63.999 342.598 64 L 346.696 64 346.214 54 L 345.733 44 352.760 44 L 359.788 44 364.712 52.250 C 367.419 56.788, 369.928 61.288, 370.286 62.250 C 370.772 63.556, 372.063 64, 375.375 64 L 379.812 64 374.086 55.250 C 366.323 43.387, 366.363 43.585, 371.461 42.222 C 382.237 39.340, 386.494 25.495, 379.252 16.887 C 374.405 11.128, 370.350 10.047, 353.500 10.022 L 338.500 9.999 338.500 36.999 M 395.500 37 L 395.500 64 413.133 64 C 430.574 64, 430.773 63.975, 431.370 61.750 C 432.353 58.082, 432.132 57.867, 429.295 59.727 C 427.191 61.106, 423.967 61.579, 414.795 61.855 L 403 62.211 403 48.009 L 403 33.807 407.750 34.275 C 410.363 34.532, 413.400 35.048, 414.500 35.420 C 416.196 35.995, 416.533 35.620, 416.717 32.954 C 416.898 30.339, 416.646 29.929, 415.217 30.510 C 410.901 32.265, 407.484 32.908, 405.335 32.369 C 403.085 31.805, 403 31.422, 403 21.892 L 403 12 413.250 12.022 C 421.290 12.039, 424.439 12.470, 427.857 14.021 C 431.548 15.696, 432.120 15.756, 431.607 14.417 C 431.273 13.548, 431 12.198, 431 11.418 C 431 10.247, 427.906 10, 413.250 10 L 395.500 10 395.500 37 M 78.667 12.667 C 78.300 13.033, 78 19.849, 78 27.814 L 78 42.294 87.381 41.734 C 101.929 40.866, 107 37.139, 107 27.315 C 107 16.286, 101.590 12.060, 87.417 12.022 C 82.971 12.010, 79.033 12.300, 78.667 12.667 M 184 27 L 184 42 192.750 41.944 C 208.029 41.845, 213 38.149, 213 26.887 C 213 16.298, 206.886 12.016, 191.750 12.006 L 184 12 184 27 M 346.667 12.667 C 346.300 13.033, 346 19.783, 346 27.667 L 346 42 355.250 41.998 C 369.913 41.996, 375.467 37.925, 375.467 27.181 C 375.467 16.530, 369.403 12, 355.146 12 C 350.849 12, 347.033 12.300, 346.667 12.667 M 26.075 31.230 C 23.168 38.529, 20.564 45.063, 20.288 45.750 C 19.904 46.705, 22.406 47, 30.893 47 C 37.060 47, 42 46.587, 42 46.072 C 42 44.813, 32.822 19.698, 32.008 18.730 C 31.652 18.307, 28.982 23.932, 26.075 31.230" stroke="none" fill="black" fill-rule="evenodd"/>
</svg>